<?xml version="1.0" encoding="UTF-8" standalone="no"?>
<!DOCTYPE svg PUBLIC "-//W3C//DTD SVG 1.1//EN" "http://www.w3.org/Graphics/SVG/1.1/DTD/svg11.dtd">
<svg width="100%" height="100%" viewBox="0 0 1776 1955" version="1.1" xmlns="http://www.w3.org/2000/svg" xmlns:xlink="http://www.w3.org/1999/xlink" xml:space="preserve" xmlns:serif="http://www.serif.com/" style="fill-rule:evenodd;clip-rule:evenodd;stroke-linejoin:round;stroke-miterlimit:2;">
    <g transform="matrix(1,0,0,1,-127.897,-46.3986)">
        <g transform="matrix(1.02567,0,0,1.02567,-285.902,-282.25)">
            <use xlink:href="#_Image1" x="255" y="255" width="2049px" height="2049px"/>
        </g>
        <g id="SvgjsG1143" transform="matrix(20.4239,0,0,19.5459,127.897,46.3888)">
            <path d="M43.463,100C43.256,100 43.049,99.946 42.865,99.839L0.599,75.439C0.229,75.226 0,74.83 0,74.403L0,25.599C0,25.171 0.228,24.777 0.598,24.564L42.865,0.163C43.433,-0.171 44.168,0.027 44.499,0.6C44.83,1.172 44.634,1.904 44.061,2.233L2.394,26.291L2.394,73.711L43.463,97.423L84.532,73.711L84.532,25.599C84.532,24.938 85.067,24.403 85.728,24.403C86.389,24.403 86.924,24.938 86.924,25.599L86.924,74.404C86.924,74.831 86.695,75.226 86.326,75.439L44.06,99.839C43.876,99.946 43.67,100 43.463,100Z" style="fill:currentColor;fill-rule:nonzero;"/>
            <path d="M16.785,34.626C16.605,34.626 16.422,34.586 16.249,34.5L0.66,26.669C0.07,26.372 -0.169,25.652 0.128,25.061C0.425,24.472 1.14,24.229 1.734,24.528L17.323,32.359C17.913,32.656 18.152,33.376 17.855,33.967C17.645,34.385 17.223,34.626 16.785,34.626Z" style="fill:currentColor;fill-rule:nonzero;"/>
            <path d="M43.463,100C42.802,100 42.267,99.465 42.267,98.804L42.267,81.364C42.267,80.703 42.802,80.168 43.463,80.168C44.124,80.168 44.659,80.703 44.659,81.364L44.659,98.803C44.659,99.465 44.124,100 43.463,100Z" style="fill:currentColor;fill-rule:nonzero;"/>
            <path d="M43.462,81.577C43.27,81.577 43.076,81.53 42.896,81.434L16.22,67.077C15.832,66.869 15.591,66.463 15.591,66.023L15.59,33.429C15.59,32.768 16.125,32.233 16.787,32.233C17.448,32.233 17.983,32.768 17.983,33.429L17.984,65.307L44.03,79.326C44.612,79.639 44.83,80.366 44.517,80.948C44.301,81.348 43.888,81.577 43.462,81.577Z" style="fill:currentColor;fill-rule:nonzero;"/>
            <path d="M16.788,34.626C16.378,34.626 15.978,34.416 15.755,34.035C15.421,33.467 15.611,32.733 16.18,32.399L42.856,16.724C43.425,16.388 44.16,16.577 44.494,17.149C44.829,17.717 44.639,18.45 44.069,18.785L17.394,34.46C17.203,34.572 16.994,34.626 16.788,34.626Z" style="fill:currentColor;fill-rule:nonzero;"/>
            <path d="M16.99,67.203C16.58,67.203 16.18,66.993 15.957,66.612C15.623,66.044 15.813,65.31 16.382,64.976L43.06,49.301C43.629,48.965 44.364,49.154 44.699,49.726C45.033,50.294 44.843,51.027 44.273,51.362L17.596,67.037C17.405,67.149 17.196,67.203 16.99,67.203Z" style="fill:currentColor;fill-rule:nonzero;"/>
            <path d="M43.463,51.701C42.802,51.701 42.267,51.166 42.267,50.504L42.267,17.754C42.267,17.093 42.802,16.558 43.463,16.558C44.124,16.558 44.659,17.093 44.659,17.754L44.659,50.504C44.659,51.166 44.124,51.701 43.463,51.701Z" style="fill:currentColor;fill-rule:nonzero;"/>
            <path d="M43.463,100C43.256,100 43.049,99.946 42.865,99.839L0.599,75.439C0.229,75.226 0,74.83 0,74.403L0,25.599C0,24.938 0.535,24.403 1.197,24.403C1.858,24.403 2.393,24.938 2.393,25.599L2.393,73.711L43.462,97.423L84.531,73.711L84.531,26.291L42.865,2.233C42.292,1.903 42.096,1.172 42.427,0.6C42.756,0.027 43.489,-0.171 44.061,0.163L86.327,24.564C86.696,24.777 86.925,25.171 86.925,25.599L86.925,74.404C86.925,74.831 86.696,75.226 86.327,75.439L44.061,99.839C43.876,99.946 43.67,100 43.463,100Z" style="fill:currentColor;fill-rule:nonzero;"/>
            <path d="M70.143,34.626C69.705,34.626 69.283,34.385 69.073,33.967C68.778,33.376 69.016,32.656 69.605,32.359L85.192,24.528C85.788,24.231 86.501,24.472 86.799,25.061C87.094,25.652 86.856,26.372 86.267,26.669L70.68,34.5C70.507,34.586 70.324,34.626 70.143,34.626Z" style="fill:currentColor;fill-rule:nonzero;"/>
            <path d="M43.463,100C42.802,100 42.267,99.465 42.267,98.804L42.267,80.381C42.267,79.719 42.802,79.184 43.463,79.184C44.124,79.184 44.659,79.719 44.659,80.381L44.659,98.804C44.659,99.465 44.124,100 43.463,100Z" style="fill:currentColor;fill-rule:nonzero;"/>
            <path d="M43.464,81.577C43.038,81.577 42.625,81.348 42.409,80.948C42.096,80.366 42.314,79.639 42.896,79.326L68.941,65.307L68.945,33.429C68.945,32.768 69.483,32.233 70.142,32.233C70.803,32.233 71.338,32.768 71.338,33.429L71.333,66.023C71.333,66.462 71.093,66.869 70.704,67.077L44.03,81.435C43.85,81.53 43.656,81.577 43.464,81.577Z" style="fill:currentColor;fill-rule:nonzero;"/>
            <path d="M70.138,34.626C69.932,34.626 69.722,34.572 69.533,34.46L42.856,18.785C42.287,18.451 42.097,17.717 42.431,17.149C42.767,16.576 43.499,16.387 44.069,16.724L70.745,32.399C71.315,32.733 71.505,33.467 71.17,34.035C70.946,34.416 70.549,34.626 70.138,34.626Z" style="fill:currentColor;fill-rule:nonzero;"/>
            <path d="M69.937,67.203C69.731,67.203 69.523,67.149 69.334,67.037L42.657,51.362C42.088,51.027 41.898,50.294 42.232,49.726C42.568,49.154 43.3,48.964 43.87,49.301L70.544,64.977C71.114,65.311 71.306,66.044 70.97,66.613C70.747,66.993 70.348,67.203 69.937,67.203Z" style="fill:currentColor;fill-rule:nonzero;"/>
            <path d="M43.463,51.701C42.802,51.701 42.267,51.166 42.267,50.504L42.267,17.754C42.267,17.093 42.802,16.558 43.463,16.558C44.124,16.558 44.659,17.093 44.659,17.754L44.659,50.504C44.659,51.166 44.124,51.701 43.463,51.701Z" style="fill:currentColor;fill-rule:nonzero;"/>
        </g>
    </g>
</svg>
